<svg width="1200" height="900" viewBox="0 0 1200 900" fill="none" xmlns="http://www.w3.org/2000/svg">
  <defs>
    <linearGradient id="bg" x1="70" y1="60" x2="1120" y2="860" gradientUnits="userSpaceOnUse">
      <stop stop-color="#0E2741"/>
      <stop offset="1" stop-color="#1E5C97"/>
    </linearGradient>
    <linearGradient id="card" x1="138" y1="160" x2="1070" y2="774" gradientUnits="userSpaceOnUse">
      <stop stop-color="#F9FCFF"/>
      <stop offset="1" stop-color="#E8F1FB"/>
    </linearGradient>
    <linearGradient id="counter" x1="690" y1="350" x2="1000" y2="690" gradientUnits="userSpaceOnUse">
      <stop stop-color="#2A6EBF"/>
      <stop offset="1" stop-color="#163E6B"/>
    </linearGradient>
    <linearGradient id="screen" x1="767" y1="252" x2="975" y2="416" gradientUnits="userSpaceOnUse">
      <stop stop-color="#EAF4FF"/>
      <stop offset="1" stop-color="#BED6F1"/>
    </linearGradient>
  </defs>

  <rect width="1200" height="900" rx="36" fill="url(#bg)"/>
  <circle cx="1030" cy="130" r="140" fill="#5AA7FF" fill-opacity="0.12"/>
  <circle cx="118" cy="760" r="190" fill="#88C4FF" fill-opacity="0.12"/>
  <circle cx="970" cy="730" r="180" fill="#163E6B" fill-opacity="0.18"/>

  <rect x="92" y="146" width="1016" height="644" rx="34" fill="url(#card)"/>
  <rect x="132" y="188" width="936" height="68" rx="18" fill="#FFFFFF"/>
  <rect x="162" y="212" width="218" height="20" rx="10" fill="#D9E8F8"/>
  <rect x="812" y="210" width="92" height="24" rx="12" fill="#E7F0FB"/>
  <rect x="918" y="210" width="122" height="24" rx="12" fill="#F7D4BF"/>

  <rect x="142" y="290" width="456" height="420" rx="28" fill="#FFFFFF"/>
  <rect x="178" y="328" width="138" height="166" rx="18" fill="#F2F7FD"/>
  <rect x="337" y="328" width="222" height="166" rx="18" fill="#F2F7FD"/>
  <rect x="178" y="516" width="381" height="78" rx="18" fill="#F2F7FD"/>
  <rect x="178" y="614" width="284" height="20" rx="10" fill="#C9DCF1"/>
  <rect x="178" y="650" width="244" height="20" rx="10" fill="#DDE9F7"/>
  <rect x="206" y="356" width="82" height="82" rx="20" fill="#2A6EBF" fill-opacity="0.14"/>
  <rect x="365" y="358" width="164" height="16" rx="8" fill="#B8CDE6"/>
  <rect x="365" y="390" width="142" height="14" rx="7" fill="#CFDEF0"/>
  <rect x="365" y="419" width="124" height="14" rx="7" fill="#CFDEF0"/>
  <rect x="206" y="542" width="188" height="14" rx="7" fill="#BCD1EA"/>
  <rect x="206" y="568" width="252" height="14" rx="7" fill="#D7E4F3"/>

  <rect x="648" y="290" width="362" height="180" rx="28" fill="#EAF3FF"/>
  <rect x="680" y="322" width="140" height="18" rx="9" fill="#A9C7E8"/>
  <rect x="680" y="356" width="296" height="88" rx="18" fill="url(#screen)"/>
  <rect x="704" y="382" width="104" height="12" rx="6" fill="#2A6EBF" fill-opacity="0.28"/>
  <rect x="704" y="410" width="170" height="12" rx="6" fill="#B6CEE8"/>
  <circle cx="936" cy="333" r="11" fill="#21A365"/>
  <circle cx="968" cy="333" r="11" fill="#F4B400"/>

  <ellipse cx="846" cy="700" rx="214" ry="28" fill="#9AB7DA" fill-opacity="0.38"/>
  <rect x="700" y="466" width="268" height="180" rx="32" fill="url(#counter)"/>
  <rect x="726" y="494" width="108" height="74" rx="16" fill="#FFFFFF"/>
  <rect x="742" y="512" width="76" height="14" rx="7" fill="#D9E8F8"/>
  <rect x="742" y="538" width="54" height="12" rx="6" fill="#C5D9F0"/>
  <rect x="866" y="488" width="74" height="104" rx="16" fill="#12365D"/>
  <rect x="880" y="504" width="46" height="58" rx="10" fill="#E9F2FD"/>
  <rect x="848" y="610" width="94" height="16" rx="8" fill="#7FB1E8" fill-opacity="0.55"/>

  <ellipse cx="764" cy="682" rx="74" ry="18" fill="#7097C3" fill-opacity="0.35"/>
  <circle cx="764" cy="524" r="40" fill="#FFD7C4"/>
  <path d="M720 600C720 570 744 546 774 546H792C822 546 846 570 846 600V660H720V600Z" fill="#E67E22"/>
  <rect x="744" y="548" width="48" height="18" rx="9" fill="#173E6A"/>
  <path d="M730 525C730 490 754 464 788 460C811 457 835 470 848 490" stroke="#173E6A" stroke-width="14" stroke-linecap="round"/>
  <rect x="728" y="607" width="110" height="22" rx="11" fill="#F4A261" fill-opacity="0.6"/>

  <ellipse cx="955" cy="690" rx="78" ry="18" fill="#7097C3" fill-opacity="0.35"/>
  <circle cx="955" cy="510" r="38" fill="#FFD7C4"/>
  <path d="M915 604C915 574 939 550 969 550H988C1018 550 1042 574 1042 604V662H915V604Z" fill="#1B4D87"/>
  <rect x="948" y="550" width="44" height="16" rx="8" fill="#9FC3EC"/>
  <path d="M921 504C934 478 958 462 986 466C1005 469 1022 480 1033 496" stroke="#6A3F2B" stroke-width="12" stroke-linecap="round"/>
  <rect x="934" y="593" width="88" height="60" rx="18" fill="#F8F2E8"/>
  <rect x="946" y="605" width="64" height="10" rx="5" fill="#D6B999"/>
  <rect x="946" y="623" width="42" height="10" rx="5" fill="#E6CCB3"/>

  <circle cx="192" cy="222" r="7" fill="#21A365"/>
  <circle cx="218" cy="222" r="7" fill="#F4B400"/>
  <circle cx="244" cy="222" r="7" fill="#DB4437"/>
</svg>
