<svg width="2017" height="305" viewBox="0 0 2017 305" fill="none" xmlns="http://www.w3.org/2000/svg">
<path d="M162.817 304.155H213.711L181.341 274.834L86.7064 189.112C86.7064 189.112 73.1336 208.436 67.4474 218.122L162.817 304.155Z" fill="white"/>
<path d="M36.9038 51.6241H0.802734V304.155H30.209H31.889C37.7942 281.043 48.808 249.875 67.4474 218.122C73.1336 208.436 86.7064 189.112 86.7064 189.112C93.073 180.61 100.054 172.233 107.7 164.128C134.719 135.486 170.215 110.032 216.738 94.515C225.271 91.6687 234.176 89.1567 243.467 87.0207C266.655 81.6898 292.253 78.7006 320.504 78.7006H366.716H438.172V46.3645H320.504C211.963 46.3645 138.267 84.294 89.4054 136.091C66.9183 159.929 49.7937 185.822 36.9038 210.633V51.6241Z" fill="white"/>
<path fill-rule="evenodd" clip-rule="evenodd" d="M366.716 78.7006H320.504C292.253 78.7006 266.655 81.6898 243.467 87.0207L311.305 74.4456C320.814 74.4456 327.682 76.6762 331.909 81.1375C336.135 85.5987 338.248 105.218 338.248 114.845V131.399C338.248 140.556 336.311 147.365 332.437 151.827C328.68 156.17 322.458 158.518 313.77 158.871H216.738V94.515C204.148 98.7141 192.366 103.641 181.341 109.162V274.834L213.711 304.155H319.582C360.437 304.155 380.865 283.727 380.865 242.872V230.192C380.865 221.857 380.043 214.46 378.4 208.003C376.756 201.546 374.408 195.97 371.356 191.274C368.303 186.46 364.605 182.527 360.261 179.475C355.917 176.422 351.104 174.074 345.821 172.431C355.33 168.087 362.316 161.453 366.777 152.531C371.356 143.491 373.645 131.868 373.645 117.663V113.084C373.645 99.3065 371.335 87.8454 366.716 78.7006ZM216.738 268.759V194.091H318.525C328.035 194.091 334.902 196.263 339.129 200.607C343.355 204.951 345.469 211.936 345.469 221.563V241.111C345.469 250.62 343.355 257.606 339.129 262.067C334.902 266.528 328.035 268.759 318.525 268.759H216.738Z" fill="white"/>
<path fill-rule="evenodd" clip-rule="evenodd" d="M216.738 87.0207V94.515C225.271 91.6687 234.176 89.1567 243.467 87.0207H216.738Z" fill="white"/>
<path d="M436.375 0.555908L444.233 45.3573L481.469 19.2347L455.347 56.4708L500.148 64.3292L455.347 72.1876L481.469 109.424L444.233 83.3011L436.375 128.102L428.516 83.3011L391.28 109.424L417.403 72.1876L372.602 64.3292L417.403 56.4708L391.28 19.2347L428.516 45.3573L436.375 0.555908Z" fill="white"/>
<path d="M1986.63 77.1313H2016.2V280.249H1986.63V77.1313Z" fill="white"/>
<path d="M1914.64 153.404H1945.59V280.249H1914.64V153.404ZM1929.84 129.638C1924.12 129.638 1919.33 127.704 1915.47 123.835C1911.6 119.966 1909.66 115.176 1909.66 109.464C1909.66 104.306 1911.6 99.8842 1915.47 96.1995C1919.33 92.5148 1924.12 90.6725 1929.84 90.6725C1935.36 90.6725 1940.06 92.5148 1943.93 96.1995C1947.8 99.8842 1949.73 104.306 1949.73 109.464C1949.73 115.176 1947.8 119.966 1943.93 123.835C1940.25 127.704 1935.55 129.638 1929.84 129.638Z" fill="white"/>
<path d="M1833.9 283.012C1825.06 283.012 1815.85 281.907 1806.27 279.696C1796.87 277.301 1790.15 274.538 1786.09 271.406L1796.04 247.916C1807.09 255.654 1819.71 259.523 1833.9 259.523C1848.09 259.523 1855.18 255.377 1855.18 247.087C1855.18 243.402 1853.71 240.546 1850.76 238.52C1847.81 236.493 1842.56 234.098 1835.01 231.335L1824.51 227.466C1813.45 223.044 1804.7 217.794 1798.25 211.714C1791.8 205.45 1788.58 197.252 1788.58 187.119C1788.58 175.512 1793.09 166.484 1802.12 160.036C1811.33 153.404 1823.58 150.088 1838.88 150.088C1846.43 150.088 1853.8 150.917 1860.98 152.575C1868.35 154.233 1873.97 156.352 1877.84 158.931L1867.06 182.697C1864.67 180.302 1860.8 178.275 1855.46 176.617C1850.3 174.775 1844.49 173.854 1838.05 173.854C1824.97 173.854 1818.43 177.815 1818.43 185.737C1818.43 190.159 1820.18 193.567 1823.68 195.962C1827.18 198.173 1832.89 200.66 1840.81 203.423C1841.55 203.608 1844.4 204.621 1849.38 206.463C1861.17 211.069 1869.92 216.32 1875.63 222.215C1881.34 228.111 1884.2 235.664 1884.2 244.876C1884.2 257.404 1879.41 266.892 1869.83 273.34C1860.43 279.788 1848.46 283.012 1833.9 283.012Z" fill="white"/>
<path d="M1679.08 283.012C1667.66 283.012 1657.06 280.341 1647.3 274.998C1637.72 269.471 1629.98 261.733 1624.09 251.785C1618.38 241.652 1615.52 229.861 1615.52 216.412C1615.52 203.147 1618.01 191.54 1622.98 181.592C1628.14 171.643 1635.42 163.905 1644.81 158.378C1654.21 152.851 1665.26 150.088 1677.97 150.088C1685.34 150.088 1692.25 151.377 1698.7 153.957C1705.15 156.536 1710.58 159.76 1715.01 163.629C1719.43 167.314 1722.38 170.998 1723.85 174.683L1724.4 153.404H1752.87V280.249H1724.68L1724.13 257.864C1720.99 264.497 1715.28 270.392 1706.99 275.551C1698.7 280.525 1689.4 283.012 1679.08 283.012ZM1684.05 258.141C1694.56 258.141 1703.4 254.548 1710.58 247.363C1717.77 239.994 1721.36 230.414 1721.36 218.623V216.688C1721.36 208.766 1719.7 201.673 1716.39 195.409C1713.07 189.145 1708.56 184.263 1702.85 180.763C1697.14 177.262 1690.87 175.512 1684.05 175.512C1672.26 175.512 1663.14 179.381 1656.7 187.119C1650.25 194.672 1647.02 204.529 1647.02 216.688C1647.02 229.032 1650.16 239.073 1656.42 246.81C1662.87 254.364 1672.08 258.141 1684.05 258.141Z" fill="white"/>
<path d="M1525.6 153.404H1555.45V178.275C1558.39 169.801 1563.19 162.984 1569.82 157.825C1576.45 152.667 1584 150.088 1592.48 150.088C1598.37 150.088 1602.43 150.64 1604.64 151.746L1600.49 181.868C1598.83 180.763 1595.24 180.21 1589.71 180.21C1581.06 180.21 1573.13 182.973 1565.95 188.5C1558.95 194.027 1555.45 202.871 1555.45 215.03V280.249H1525.6V153.404Z" fill="white"/>
<path d="M1358.14 77.1313H1409.82C1438.93 77.1313 1458.27 82.0135 1467.85 91.7779C1477.43 101.542 1482.22 113.333 1482.22 127.151C1482.22 136.363 1480.19 145.114 1476.14 153.404C1472.09 161.51 1465.64 167.59 1456.8 171.643C1469.88 174.96 1479.46 180.763 1485.54 189.053C1491.8 197.344 1494.93 207.108 1494.93 218.347C1494.93 230.138 1493.09 240.455 1489.41 249.298C1485.72 258.141 1478.08 265.511 1466.47 271.406C1454.86 277.301 1438.1 280.249 1416.17 280.249H1358.14V77.1313ZM1414.79 163.353C1427.87 163.353 1437.18 160.221 1442.7 153.957C1448.23 147.509 1450.99 139.402 1450.99 129.638C1450.99 112.136 1438.47 103.385 1413.41 103.385H1388.54V163.353H1414.79ZM1420.32 254.272C1437.08 254.272 1448.32 250.956 1454.03 244.324C1459.93 237.507 1462.88 228.94 1462.88 218.623C1462.88 208.859 1459.56 201.305 1452.93 195.962C1446.3 190.619 1436.25 187.948 1422.81 187.948H1388.54V254.272H1420.32Z" fill="white"/>
<path d="M1217.95 283.013C1207.63 283.013 1198.32 280.526 1190.03 275.551C1181.93 270.393 1176.31 264.497 1173.18 257.865L1172.62 280.249H1143.88V77.1313H1173.18V155.339L1171.79 176.894C1174.93 169.525 1181.01 163.261 1190.03 158.102C1199.25 152.759 1209.19 150.088 1219.88 150.088C1232.41 150.088 1243.28 152.944 1252.49 158.655C1261.89 164.182 1269.07 172.012 1274.04 182.145C1279.02 192.093 1281.51 203.7 1281.51 216.965C1281.51 230.414 1278.56 242.113 1272.66 252.061C1266.95 262.01 1259.21 269.656 1249.45 274.999C1239.87 280.341 1229.37 283.013 1217.95 283.013ZM1212.97 258.141C1224.95 258.141 1234.16 254.364 1240.61 246.811C1247.05 239.073 1250.28 229.124 1250.28 216.965C1250.28 204.621 1247.05 194.673 1240.61 187.119C1234.34 179.381 1225.13 175.512 1212.97 175.512C1202.47 175.512 1193.63 179.197 1186.44 186.566C1179.26 193.751 1175.66 203.239 1175.66 215.03V216.965C1175.66 224.887 1177.32 231.98 1180.64 238.244C1184.14 244.508 1188.65 249.39 1194.18 252.89C1199.89 256.391 1206.15 258.141 1212.97 258.141Z" fill="white"/>
<path d="M1058.43 283.012C1043.32 283.012 1030.7 280.065 1020.57 274.169C1010.44 268.089 1002.97 260.075 998.184 250.127C993.394 239.994 990.999 228.94 990.999 216.965C990.999 203.515 993.762 191.724 999.289 181.592C1005 171.459 1012.83 163.721 1022.78 158.378C1032.73 152.851 1043.97 150.088 1056.49 150.088C1076.02 150.088 1090.48 155.523 1099.88 166.392C1109.46 177.078 1114.25 192.185 1114.25 211.714C1114.25 216.688 1113.97 221.847 1113.42 227.19H1022.23C1024.25 238.428 1028.21 246.534 1034.11 251.508C1040.19 256.483 1048.57 258.97 1059.26 258.97C1068.1 258.97 1075.38 258.233 1081.09 256.759C1086.8 255.285 1092.05 253.259 1096.84 250.679L1105.96 271.958C1101.35 274.906 1095.09 277.485 1087.17 279.696C1079.25 281.907 1069.67 283.012 1058.43 283.012ZM1085.23 206.463C1085.42 195.041 1082.93 187.027 1077.77 182.421C1072.61 177.631 1065.24 175.236 1055.66 175.236C1036.32 175.236 1025.17 185.645 1022.23 206.463H1085.23Z" fill="white"/>
<path d="M929.766 77.1313H959.336V280.249H929.766V77.1313Z" fill="white"/>
<path d="M816.121 283.012C804.698 283.012 794.105 280.341 784.34 274.998C774.76 269.471 767.022 261.733 761.127 251.785C755.416 241.652 752.56 229.861 752.56 216.412C752.56 203.147 755.047 191.54 760.022 181.592C765.18 171.643 772.457 163.905 781.853 158.378C791.249 152.851 802.303 150.088 815.015 150.088C822.385 150.088 829.293 151.377 835.742 153.957C842.19 156.536 847.625 159.76 852.046 163.629C856.468 167.314 859.416 170.998 860.89 174.683L861.442 153.404H889.906V280.249H861.719L861.166 257.864C858.034 264.497 852.323 270.392 844.032 275.551C835.742 280.525 826.438 283.012 816.121 283.012ZM821.095 258.141C831.596 258.141 840.44 254.548 847.625 247.363C854.81 239.994 858.402 230.414 858.402 218.623V216.688C858.402 208.766 856.744 201.673 853.428 195.409C850.112 189.145 845.598 184.263 839.887 180.763C834.176 177.262 827.912 175.512 821.095 175.512C809.304 175.512 800.185 179.381 793.736 187.119C787.288 194.672 784.064 204.529 784.064 216.688C784.064 229.032 787.196 239.073 793.46 246.81C799.908 254.364 809.12 258.141 821.095 258.141Z" fill="white"/>
<path d="M647.346 189.33L630.765 209.78V280.249H600.366V77.1315H630.765V167.775L700.405 77.1315H737.436L667.519 166.393L747.385 280.249H709.525L647.346 189.33Z" fill="white"/>
</svg>
